<svg width="29" height="34" viewBox="0 0 29 34" fill="none" xmlns="http://www.w3.org/2000/svg">
<path d="M2.18959 24.2298L20.8207 24.2298C21.0617 24.2298 21.2928 24.3255 21.4632 24.4959L28.7321 31.7649C29.3045 32.3373 28.8991 33.316 28.0896 33.316L9.45852 33.316C9.21754 33.316 8.98643 33.2202 8.81603 33.0498L1.5471 25.7809C0.974699 25.2085 1.38009 24.2298 2.18959 24.2298Z" fill="#FD1278"/>
<path d="M2.4639e-06 11.7333L0 22.0131C3.5384e-08 22.8226 0.978711 23.228 1.55111 22.6556L22.6556 1.55111C23.228 0.978708 22.8226 -3.5384e-08 22.0131 0L11.7333 4.49345e-07C11.4923 4.59879e-07 11.2612 0.0957297 11.0908 0.266128L0.26613 11.0908C0.0957317 11.2612 2.45337e-06 11.4923 2.4639e-06 11.7333Z" fill="#FD1278"/>
</svg>
